<?xml version="1.0" encoding="utf-8"?>
<!-- Generator: Adobe Illustrator 16.0.0, SVG Export Plug-In . SVG Version: 6.00 Build 0)  -->
<!DOCTYPE svg PUBLIC "-//W3C//DTD SVG 1.1//EN" "http://www.w3.org/Graphics/SVG/1.1/DTD/svg11.dtd">
<svg version="1.1" id="Layer_1" xmlns="http://www.w3.org/2000/svg" xmlns:xlink="http://www.w3.org/1999/xlink" x="0px" y="0px"
	 width="144px" height="252px" viewBox="0 0 144 252" enable-background="new 0 0 144 252" xml:space="preserve">
<g id="XMLID_1_">
	<g>
		<path fill="#FFFFFF" d="M72.278,64.642c35.282,0,63.908,27.794,63.908,62.036c0,34.268-28.626,62.037-63.908,62.037
			c-35.308,0-63.934-27.769-63.934-62.037C8.344,92.436,36.97,64.642,72.278,64.642z M127.138,125.534
			c0-29.614-24.492-53.586-54.678-53.586c-30.212,0-54.678,23.972-54.678,53.586c0,29.587,24.466,53.585,54.678,53.585
			C102.646,179.119,127.138,155.121,127.138,125.534z"/>
		<path fill="#FFFFFF" d="M72.46,71.947c30.186,0,54.678,23.972,54.678,53.586c0,29.587-24.492,53.585-54.678,53.585
			c-30.212,0-54.678-23.998-54.678-53.585C17.782,95.919,42.248,71.947,72.46,71.947z M116.218,126.677
			c0-24.284-19.656-43.966-43.94-43.966c-24.284,0-43.966,19.682-43.966,43.966c0,24.285,19.682,43.966,43.966,43.966
			C96.562,170.644,116.218,150.962,116.218,126.677z"/>
		<polygon points="105.376,115.237 103.191,115.472 102.775,117.733 101.164,115.368 98.798,114.848 99.968,113.131 98.928,110.558 
			101.268,111.883 103.01,110.766 103.27,113.313 		"/>
		<polygon points="104.726,103.875 103.452,104.083 103.244,105.436 102.282,104.058 100.878,103.823 101.554,102.757 
			100.903,101.25 102.282,101.978 103.27,101.275 103.478,102.784 		"/>
		<polygon points="96.848,121.217 97.394,121.945 96.64,121.815 96.328,122.414 95.964,121.582 95.21,121.217 95.729,120.854 
			95.6,120.021 96.275,120.62 96.952,120.463 		"/>
		<polygon points="93.233,112.222 82.729,142.59 78.31,140.691 88.684,110.246 		"/>
		<polygon points="91.985,96.257 90.321,96.361 89.905,98.025 88.788,96.206 86.994,95.737 87.956,94.489 87.254,92.54 
			88.996,93.605 90.348,92.852 90.452,94.75 		"/>
		<path d="M90.452,150.962c0.052,0.155,0.104,0.312,0.155,0.441c-5.174,3.588-11.491,5.772-18.33,5.772
			c-17.368,0-31.46-13.65-31.46-30.499c0-16.38,13.312-29.718,30.03-30.446c-9.984,4.524-17.186,14.95-17.186,26.884
			c0,16.094,12.714,29.146,28.418,29.146C84.992,152.262,87.8,151.794,90.452,150.962z"/>
		<polygon points="82.964,101.952 82.054,103.355 82.912,105.41 81.065,104.37 79.714,105.253 79.479,103.226 77.815,101.744 
			79.506,101.509 79.817,99.689 81.118,101.587 		"/>
		<polygon points="82.651,113.547 81.586,114.12 81.768,115.627 80.546,114.432 79.271,114.562 79.584,113.261 78.622,111.832 
			80.025,112.222 80.728,111.208 81.273,112.768 		"/>
	</g>
	<g>
		<path fill="none" stroke="#000000" stroke-width="2" stroke-miterlimit="10" d="M136.186,126.677
			c0,34.268-28.626,62.037-63.908,62.037c-35.308,0-63.934-27.769-63.934-62.037c0-34.242,28.626-62.036,63.934-62.036
			C107.56,64.642,136.186,92.436,136.186,126.677z"/>
		<path fill="none" stroke="#000000" stroke-miterlimit="10" d="M116.218,126.677c0,24.285-19.656,43.966-43.94,43.966
			c-24.284,0-43.966-19.682-43.966-43.966c0-24.284,19.682-43.966,43.966-43.966C96.562,82.711,116.218,102.394,116.218,126.677z"/>
	</g>
</g>
<polygon fill="none" stroke="#000000" stroke-miterlimit="10" points="98.141,101.33 99.197,108.271 93.715,112.66 87.176,110.104 
	86.117,103.162 91.6,98.773 "/>
<polygon fill="none" stroke="#000000" stroke-width="0.5" stroke-miterlimit="10" points="95.865,106.854 93.102,108.963 
	89.895,107.623 89.449,104.174 92.215,102.064 95.424,103.404 "/>
<line fill="none" stroke="#000000" stroke-width="0.5" stroke-miterlimit="10" x1="91.48" y1="99.055" x2="92.174" y2="102.182"/>
<line fill="none" stroke="#000000" stroke-width="0.5" stroke-miterlimit="10" x1="98.02" y1="101.654" x2="95.5" y2="103.279"/>
<line fill="none" stroke="#000000" stroke-width="0.5" stroke-miterlimit="10" x1="95.865" y1="106.854" x2="98.629" y2="108.195"/>
<line fill="none" stroke="#000000" stroke-width="0.5" stroke-miterlimit="10" x1="93.146" y1="109.049" x2="93.553" y2="112.299"/>
<line fill="none" stroke="#000000" stroke-width="0.5" stroke-miterlimit="10" x1="89.895" y1="107.623" x2="87.662" y2="109.779"/>
<line fill="none" stroke="#000000" stroke-width="0.5" stroke-miterlimit="10" x1="89.449" y1="104.174" x2="86.487" y2="103.307"/>
<ellipse fill="none" cx="72.454" cy="126.979" rx="48.315" ry="48.207"/>
<text transform="matrix(0.6251 -0.7309 0.76 0.6499 33.5552 98.1953)" font-family="'AnotherTypewriter'" font-size="15.6">s</text>
<text transform="matrix(0.7685 -0.5783 0.6013 0.799 40.043 90.9844)" font-family="'AnotherTypewriter'" font-size="15.6">a</text>
<text transform="matrix(0.8758 -0.3975 0.4133 0.9106 49.5142 84.4165)" font-family="'AnotherTypewriter'" font-size="15.6">i</text>
<text transform="matrix(0.9395 -0.2056 0.2138 0.9769 58.4292 80.6836)" font-family="'AnotherTypewriter'" font-size="15.6">l</text>
<text transform="matrix(0.9616 0.0156 -0.0162 0.9999 68.7964 78.7114)" font-family="'AnotherTypewriter'" font-size="15.6">o</text>
<text transform="matrix(0.9381 0.2122 -0.2206 0.9754 79.3008 79.0845)" font-family="'AnotherTypewriter'" font-size="15.6">r</text>
<text transform="matrix(0.8668 0.4167 -0.4333 0.9013 90.0234 81.8989)" font-family="'AnotherTypewriter'" font-size="15.6"> </text>
<text transform="matrix(0.7551 0.5957 -0.6194 0.7851 99.457 86.8188)" font-family="'AnotherTypewriter'" font-size="15.6"> </text>
<text transform="matrix(0.6074 0.7457 -0.7753 0.6316 107.6016 93.6855)" font-family="'AnotherTypewriter'" font-size="15.6"> </text>
<text transform="matrix(0.4294 0.8606 -0.8948 0.4465 114.0605 102.1641)" font-family="'AnotherTypewriter'" font-size="15.6"> </text>
<text transform="matrix(0.2379 0.9319 -0.9689 0.2474 118.4688 111.8628)" font-family="'AnotherTypewriter'" font-size="15.6">s</text>
<text transform="matrix(0.0381 0.961 -0.9992 0.0397 120.5879 121.3511)" font-family="'AnotherTypewriter'" font-size="15.6">t</text>
<text transform="matrix(-0.1791 0.9449 -0.9825 -0.1863 120.709 131.8809)" font-family="'AnotherTypewriter'" font-size="15.6">a</text>
<text transform="matrix(-0.3943 0.8772 -0.9121 -0.4099 118.1973 143.0508)" font-family="'AnotherTypewriter'" font-size="15.6">r</text>
<text transform="matrix(-0.5806 0.7668 -0.7972 -0.6037 113.2969 153.0205)" font-family="'AnotherTypewriter'" font-size="15.6"> </text>
<text transform="matrix(-0.7332 0.6224 -0.6471 -0.7624 106.6055 161.2861)" font-family="'AnotherTypewriter'" font-size="15.6"> </text>
<text transform="matrix(-0.8514 0.4474 -0.4652 -0.8852 98.2598 167.916)" font-family="'AnotherTypewriter'" font-size="15.6"> </text>
<text transform="matrix(-0.9288 0.2496 -0.2595 -0.9657 88.6777 172.5576)" font-family="'AnotherTypewriter'" font-size="15.6"> </text>
<text transform="matrix(-0.9605 0.0501 -0.0521 -0.9986 78.2949 174.9492)" font-family="'AnotherTypewriter'" font-size="15.6">s</text>
<text transform="matrix(-0.9502 -0.1487 0.1546 -0.988 68.5576 175.1719)" font-family="'AnotherTypewriter'" font-size="15.6">t</text>
<text transform="matrix(-0.89 -0.3644 0.3789 -0.9254 58.2212 173.2725)" font-family="'AnotherTypewriter'" font-size="15.6">u</text>
<text transform="matrix(-0.7789 -0.5642 0.5866 -0.8099 47.3291 168.3545)" font-family="'AnotherTypewriter'" font-size="15.6">f</text>
<text transform="matrix(-0.631 -0.7258 0.7546 -0.6561 38.5591 161.5605)" font-family="'AnotherTypewriter'" font-size="15.6">f</text>
<text transform="matrix(-0.4612 -0.844 0.8775 -0.4795 31.5781 152.8975)" font-family="'AnotherTypewriter'" font-size="15.6">s</text>
<circle fill="none" cx="72.267" cy="126.67" r="49.899"/>
<rect x="51.331" y="70.869" fill="none" width="21.547" height="8.846"/>
<path fill="none" d="M120.85,126.215c0,26.494-21.684,47.975-48.425,47.975c-26.744,0-48.428-21.48-48.428-47.975
	c0-26.496,21.684-47.975,48.428-47.975C99.166,78.24,120.85,99.719,120.85,126.215z"/>
<g>
	<g>
		<path d="M95.249,101.033c0.281,0.062,0.307,0.257,0.055-0.083c-0.212-0.286-0.49-0.479-0.799-0.652
			c-0.279-0.156-0.579-0.228-0.864-0.364c-0.076-0.037-0.367-0.561-0.441-0.655c-0.324,0.557-0.648,1.114-0.973,1.671
			c-0.243-0.434-0.342-0.495-0.297-0.184c0.006,0.146,0.021,0.29,0.047,0.434c0.053,0.275,0.165,0.527,0.352,0.738
			c0.342,0.389,0.869,0.587,1.349,0.747c0.57,0.191,1.133,0.033,1.591-0.331c0.101-0.071,0.199-0.146,0.295-0.224
			c-0.326,0.056-0.316,0.09,0.028,0.101c0.394,0.042,0.788,0.051,1.182,0.096c-0.235-0.569-0.472-1.138-0.707-1.707
			c0.194-0.17-0.192,0.002-0.252,0.014c-0.249,0.052-0.496,0.113-0.725,0.231c-0.423,0.22-0.698,0.563-0.813,1.026
			c-0.313,1.251,1.616,1.782,1.928,0.531c-0.259,0.211-0.268,0.27-0.027,0.176c0.164-0.042,0.332-0.069,0.497-0.11
			c0.314-0.078,0.567-0.245,0.807-0.455c0.729-0.638,0.071-1.618-0.707-1.707c-0.531-0.061-1.269-0.231-1.794-0.094
			c-0.169,0.044-0.32,0.111-0.469,0.202c-0.104,0.084-0.211,0.165-0.321,0.242c-0.277,0.18-0.271,0.207,0.02,0.079
			c-0.171-0.043-0.314-0.124-0.466-0.209c0.165,0.285,0.226,0.302,0.182,0.049c-0.009-0.144-0.025-0.288-0.049-0.43
			c-0.146-0.611-0.538-0.947-1.117-1.145c-1.05-0.358-1.531,0.965-0.973,1.671c0.483,0.612,0.73,0.97,1.504,1.243
			c0.606,0.214,0.729,0.873,1.429,1.027C95.975,103.238,96.509,101.31,95.249,101.033L95.249,101.033z"/>
	</g>
</g>
<g>
	<g>
		<path d="M96.134,109.287c-0.173-0.239-0.326-0.419-0.587-0.568c-0.124-0.066-0.255-0.113-0.392-0.14
			c-0.283-0.081-0.237,0.005,0.137,0.256c-0.432-0.593-1.1-0.767-1.704-0.286c-0.443,0.353-0.436,0.827-0.335,1.332
			c0.086,0.431-0.047,0.946-0.036,1.412c0.019,0.798,0.825,1.192,1.505,0.863c0.288-0.139,0.528-0.349,0.76-0.568
			c0.274-0.26,0.581-0.454,0.888-0.675c0.267-0.192,0.499-0.396,0.719-0.638c0.187-0.207,0.338-0.463,0.621-0.51
			c0.862-0.143,0.963-1.448,0.239-1.828c-0.505-0.265-1.15-0.646-1.704-0.773c-0.657-0.152-1.026,0.23-1.51,0.582
			c-0.439,0.32-0.655,0.862-0.358,1.368c0.255,0.435,0.927,0.68,1.368,0.358c0.164-0.12,0.325-0.242,0.481-0.373
			c0.337-0.284-0.845-0.22-0.31,0.085c0.33,0.188,0.688,0.303,1.022,0.479c0.08-0.609,0.159-1.218,0.239-1.828
			c-0.765,0.126-1.23,0.747-1.734,1.271c-0.273,0.285-0.665,0.468-0.976,0.711c-0.257,0.201-0.46,0.467-0.756,0.61
			c0.502,0.288,1.003,0.576,1.505,0.863c-0.009-0.37,0.067-0.728,0.048-1.103c-0.012-0.225-0.02-0.44-0.052-0.665
			c-0.013-0.092-0.002-0.444-0.028-0.182c-0.098,0.236-0.195,0.471-0.293,0.707c0.037-0.029,0.073-0.059,0.11-0.088
			c-0.324,0.086-0.648,0.171-0.973,0.257c0.025,0.004,0.05,0.009,0.075,0.013c-0.147-0.085-0.294-0.171-0.441-0.257
			c-0.068-0.081,0.291,0.29,0.4,0.359c0.126,0.066,0.259,0.114,0.398,0.144c0.246,0.075,0.229,0.014-0.055-0.183
			c0.318,0.44,0.863,0.654,1.368,0.358C96.211,110.399,96.454,109.729,96.134,109.287L96.134,109.287z"/>
	</g>
</g>
<g>
	<g>
		<path d="M86.514,106.096c0.038,0.186,0.091,0.367,0.159,0.543c0.379,1.122,1.834,0.834,1.964-0.266
			c0.113-0.961-0.394-2.266-1.229-2.78c-0.168,0.621-0.337,1.242-0.505,1.863c0.266-0.021,0.531-0.037,0.776,0.088
			c-0.337-0.17-0.138,0.991-0.085,1.179c0.125,0.455,0.346-0.399,0.004-0.153c-0.124,0.09-0.25,0.175-0.357,0.284
			c-0.274,0.277-0.242,0.82-0.502,1.048c-0.884,0.775,0.243,2.09,1.212,1.57c0.794-0.426,1.031-1.135,1.575-1.786
			c0.821-0.982-0.586-2.404-1.414-1.414c-0.385,0.46-0.637,1.186-1.171,1.473c0.404,0.523,0.808,1.047,1.212,1.57
			c0.315-0.276,0.468-0.589,0.58-0.989c0.116-0.285,0.074-0.294-0.125-0.03c0.183-0.126,0.354-0.267,0.526-0.408
			c0.54-0.44,0.576-1.079,0.388-1.698c-0.112-0.372,0.075-0.78,0.011-1.173c-0.064-0.386-0.233-0.656-0.497-0.94
			c-0.506-0.545-1.435-0.675-2.133-0.622c-0.972,0.074-1.39,1.319-0.505,1.863c-0.097-0.123-0.089-0.099,0.023,0.071
			c0.054,0.089,0.094,0.185,0.119,0.287c0.081,0.233,0.125,0.451,0.097,0.695c0.654-0.088,1.31-0.177,1.964-0.266
			c-0.067-0.177-0.121-0.358-0.159-0.543C88.131,104.313,86.202,104.845,86.514,106.096L86.514,106.096z"/>
	</g>
</g>
<text transform="matrix(1 0 0 1 38.7808 228.4619)" font-family="'MyriadPro-Regular'" font-size="12">@sailorstarstuffs</text>
<g id="XMLID_2_">
	<g>
		<path d="M61.684,11.289c0,5.224,3.439,9.731,7.693,10.093c-4.098,0.297-7.912,4.545-7.912,9.573c0-5.428-3.248-9.638-7.336-9.638
			v-0.009c4.116-0.148,7.418-4.545,7.546-10.019H61.684z"/>
	</g>
	<g>
	</g>
</g>
<g id="XMLID_3_">
	<g>
		<path d="M56.248,10.289c0,2.419,1.509,4.507,3.375,4.675c-1.798,0.138-3.472,2.105-3.472,4.434c0-2.514-1.425-4.464-3.219-4.464
			V14.93c1.806-0.069,3.255-2.105,3.311-4.641H56.248z"/>
	</g>
	<g>
	</g>
</g>
<g id="XMLID_4_">
	<g>
		<path d="M65.69,14.023c0,1.173,0.795,2.186,1.773,2.268c-0.945,0.067-1.824,1.021-1.824,2.15c0-1.219-0.749-2.165-1.691-2.165
			v-0.002c0.949-0.034,1.71-1.021,1.74-2.251H65.69z"/>
	</g>
	<g>
	</g>
</g>
<g id="XMLID_5_">
	<g>
		<path d="M66.629,23.149c0,2.192,1.535,4.083,3.434,4.236c-1.83,0.125-3.532,1.907-3.532,4.017c0-2.278-1.45-4.044-3.275-4.044
			v-0.004c1.838-0.063,3.312-1.907,3.369-4.205H66.629z"/>
	</g>
	<g>
	</g>
</g>
<g id="XMLID_6_">
	<g>
		<path d="M57.523,23.909c0,1.078,0.784,2.007,1.753,2.083c-0.934,0.061-1.804,0.938-1.804,1.975c0-1.12-0.74-1.988-1.672-1.988
			v-0.002c0.938-0.031,1.691-0.938,1.72-2.067H57.523z"/>
	</g>
	<g>
	</g>
</g>
<g id="XMLID_7_">
	<g>
		<path d="M63.663,11.336c0,0.61,0.426,1.138,0.954,1.179c-0.508,0.034-0.98,0.53-0.98,1.119c0-0.634-0.403-1.126-0.91-1.126v-0.001
			C63.235,12.49,63.646,11.976,63.663,11.336L63.663,11.336z"/>
	</g>
	<g>
	</g>
</g>
<g id="XMLID_8_">
	<g>
		<path d="M55.322,27.67c0,0.613,0.429,1.141,0.959,1.18c-0.51,0.031-0.985,0.528-0.985,1.119c0-0.634-0.402-1.126-0.909-1.126
			v-0.001C54.897,28.824,55.305,28.311,55.322,27.67L55.322,27.67z"/>
	</g>
	<g>
	</g>
</g>
<g id="XMLID_15_">
	<g>
		<path d="M75.443,21.266c4.503,0,8.396-3.99,8.7-8.936c0.256,4.765,3.917,9.19,8.251,9.19c-4.679,0-8.308,3.768-8.308,8.511h-0.008
			c-0.12-4.765-3.909-8.606-8.636-8.755V21.266z"/>
	</g>
	<g>
	</g>
</g>
<g id="XMLID_14_">
	<g>
		<path d="M74.584,27.567c2.085,0,3.885-1.751,4.029-3.917c0.119,2.086,1.814,4.028,3.822,4.028c-2.167,0-3.848,1.653-3.848,3.735
			h-0.004c-0.06-2.096-1.814-3.776-4-3.842V27.567z"/>
	</g>
	<g>
	</g>
</g>
<g id="XMLID_13_">
	<g>
		<path d="M77.802,16.611c1.011,0,1.888-0.922,1.956-2.058c0.058,1.096,0.878,2.119,1.854,2.119c-1.051,0-1.866,0.866-1.866,1.962
			h-0.002c-0.028-1.101-0.88-1.989-1.941-2.021V16.611z"/>
	</g>
	<g>
	</g>
</g>
<g id="XMLID_12_">
	<g>
		<path d="M85.667,15.526c1.89,0,3.52-1.786,3.651-3.989c0.104,2.084,1.593,4.032,3.375,4.098c-1.923,0.052-3.398,1.72-3.398,3.804
			h-0.004c-0.051-2.127-1.641-3.842-3.624-3.908V15.526z"/>
	</g>
	<g>
	</g>
</g>
<g id="XMLID_11_">
	<g>
		<path d="M86.323,26.088c0.929,0,1.73-0.91,1.795-2.035c0.052,1.082,0.807,2.093,1.702,2.093c-0.967,0-1.714,0.861-1.714,1.94
			h-0.001c-0.027-1.086-0.809-1.962-1.782-1.996V26.088z"/>
	</g>
	<g>
	</g>
</g>
<g id="XMLID_10_">
	<g>
		<path d="M75.486,18.964c0.527,0,0.983-0.497,1.017-1.112c0.026,0.59,0.455,1.143,0.964,1.143c-0.547,0-0.971,0.465-0.971,1.054
			h-0.001C76.479,19.459,76.038,18.983,75.486,18.964L75.486,18.964z"/>
	</g>
	<g>
	</g>
</g>
<g id="XMLID_9_">
	<g>
		<path d="M89.564,28.642c0.53,0,0.988-0.503,1.018-1.123c0.021,0.595,0.449,1.155,0.964,1.155c-0.547,0-0.972,0.465-0.972,1.053
			h-0.001C90.558,29.136,90.115,28.661,89.564,28.642L89.564,28.642z"/>
	</g>
	<g>
	</g>
</g>
<g id="XMLID_29_">
	<g>
		<path d="M20.393,31.233c0-5.223-3.439-9.731-7.693-10.093c4.098-0.297,7.912-4.544,7.912-9.573c0,5.428,3.248,9.638,7.336,9.638
			v0.009c-4.116,0.149-7.418,4.545-7.547,10.019H20.393z"/>
	</g>
	<g>
	</g>
</g>
<g id="XMLID_28_">
	<g>
		<path d="M25.824,32.231c0-2.419-1.509-4.507-3.375-4.675c1.798-0.138,3.472-2.105,3.472-4.435c0,2.514,1.425,4.465,3.219,4.465
			v0.004c-1.806,0.069-3.255,2.105-3.311,4.641H25.824z"/>
	</g>
	<g>
	</g>
</g>
<g id="XMLID_27_">
	<g>
		<path d="M16.382,28.496c0-1.173-0.795-2.188-1.775-2.268c0.945-0.064,1.826-1.019,1.826-2.15c0,1.219,0.749,2.165,1.691,2.165
			v0.002c-0.949,0.034-1.71,1.021-1.74,2.251H16.382z"/>
	</g>
	<g>
	</g>
</g>
<g id="XMLID_26_">
	<g>
		<path d="M15.445,19.372c0-2.192-1.539-4.087-3.438-4.236c1.829-0.125,3.536-1.907,3.536-4.017c0,2.277,1.45,4.044,3.275,4.044
			v0.004c-1.838,0.059-3.312,1.903-3.369,4.205H15.445z"/>
	</g>
	<g>
	</g>
</g>
<g id="XMLID_25_">
	<g>
		<path d="M24.551,18.61c0-1.077-0.786-2.007-1.756-2.082c0.932-0.06,1.804-0.936,1.804-1.975c0,1.12,0.743,1.988,1.672,1.988v0.002
			c-0.936,0.031-1.689,0.938-1.718,2.067H24.551z"/>
	</g>
	<g>
	</g>
</g>
<g id="XMLID_24_">
	<g>
		<path d="M18.407,31.183c0-0.61-0.425-1.138-0.953-1.179c0.498-0.034,0.964-0.515,0.98-1.09c0.012,0.621,0.41,1.098,0.91,1.098
			v0.001c-0.509,0.016-0.92,0.53-0.936,1.17H18.407z"/>
	</g>
	<g>
	</g>
</g>
<g id="XMLID_23_">
	<g>
		<path d="M26.749,14.85c0-0.614-0.427-1.142-0.958-1.181c0.509-0.031,0.986-0.528,0.986-1.119c0,0.634,0.401,1.126,0.907,1.126
			v0.001C27.174,13.695,26.765,14.21,26.749,14.85L26.749,14.85z"/>
	</g>
	<g>
	</g>
</g>
<g id="XMLID_50_">
	<g>
		<path d="M104.266,11.707c0,5.223,3.439,9.74,7.702,10.093c-4.098,0.288-7.922,4.535-7.922,9.573c0-5.428-3.247-9.638-7.336-9.638
			v-0.01c4.116-0.148,7.418-4.544,7.547-10.019H104.266z"/>
	</g>
	<g>
	</g>
</g>
<g id="XMLID_49_">
	<g>
		<path d="M98.838,10.708c0,2.419,1.505,4.512,3.376,4.675c-1.803,0.138-3.472,2.105-3.472,4.434c0-2.514-1.425-4.464-3.219-4.464
			v-0.004c1.806-0.069,3.255-2.105,3.311-4.641H98.838z"/>
	</g>
	<g>
	</g>
</g>
<g id="XMLID_48_">
	<g>
		<path d="M108.277,14.443c0,1.173,0.795,2.188,1.775,2.268c-0.947,0.064-1.826,1.019-1.826,2.15c0-1.219-0.751-2.165-1.691-2.165
			v-0.002c0.949-0.034,1.71-1.021,1.739-2.251H108.277z"/>
	</g>
	<g>
	</g>
</g>
<g id="XMLID_47_">
	<g>
		<path d="M109.216,23.567c0,2.192,1.54,4.088,3.438,4.236c-1.829,0.125-3.536,1.907-3.536,4.018c0-2.278-1.449-4.045-3.274-4.045
			v-0.004c1.837-0.059,3.312-1.903,3.368-4.205H109.216z"/>
	</g>
	<g>
	</g>
</g>
<g id="XMLID_46_">
	<g>
		<path d="M100.108,24.327c0,1.082,0.792,2.015,1.765,2.084c-0.937,0.056-1.813,0.932-1.813,1.973c0-1.12-0.742-1.987-1.675-1.987
			c0.937-0.029,1.691-0.938,1.721-2.071H100.108z"/>
	</g>
	<g>
	</g>
</g>
<g id="XMLID_45_">
	<g>
		<path d="M106.251,11.755c0,0.61,0.427,1.138,0.954,1.181c-0.506,0.034-0.98,0.53-0.98,1.117c0-0.634-0.4-1.126-0.909-1.126v-0.001
			C105.825,12.909,106.233,12.395,106.251,11.755L106.251,11.755z"/>
	</g>
	<g>
	</g>
</g>
<g id="XMLID_44_">
	<g>
		<path d="M97.909,28.089c0,0.611,0.427,1.138,0.954,1.179c-0.508,0.034-0.981,0.53-0.981,1.12c0-0.634-0.401-1.126-0.908-1.126
			v-0.001C97.482,29.244,97.893,28.729,97.909,28.089L97.909,28.089z"/>
	</g>
	<g>
	</g>
</g>
<g id="XMLID_43_">
	<g>
		<path d="M33.244,21.067c4.502,0,8.387-3.99,8.7-8.925c0.256,4.754,3.925,9.18,8.251,9.18c-4.678,0-8.307,3.768-8.307,8.511h-0.008
			c-0.128-4.775-3.917-8.607-8.636-8.755V21.067z"/>
	</g>
	<g>
	</g>
</g>
<g id="XMLID_42_">
	<g>
		<path d="M32.386,27.371c2.085,0,3.885-1.75,4.03-3.916c0.119,2.086,1.814,4.028,3.822,4.028c-2.167,0-3.848,1.653-3.848,3.734
			h-0.004c-0.059-2.095-1.814-3.776-4-3.841V27.371z"/>
	</g>
	<g>
	</g>
</g>
<g id="XMLID_41_">
	<g>
		<path d="M35.605,16.416c1.012,0,1.886-0.922,1.955-2.06c0.056,1.096,0.878,2.119,1.855,2.119c-1.055,0-1.868,0.869-1.868,1.962
			h-0.001c-0.029-1.101-0.882-1.984-1.94-2.018V16.416z"/>
	</g>
	<g>
	</g>
</g>
<g id="XMLID_40_">
	<g>
		<path d="M43.471,15.329c1.889,0,3.523-1.786,3.651-3.989c0.104,2.118,1.641,4.103,3.462,4.103c-1.963,0-3.486,1.682-3.486,3.799
			h-0.003c-0.051-2.132-1.641-3.842-3.624-3.908V15.329z"/>
	</g>
	<g>
	</g>
</g>
<g id="XMLID_39_">
	<g>
		<path d="M44.126,25.894c0.925,0,1.727-0.905,1.796-2.025c0.056,1.079,0.81,2.081,1.701,2.081c-0.964,0-1.716,0.861-1.716,1.94
			h-0.001c-0.026-1.086-0.807-1.959-1.78-1.994V25.894z"/>
	</g>
	<g>
	</g>
</g>
<g id="XMLID_38_">
	<g>
		<path d="M33.289,18.767c0.531,0,0.988-0.503,1.018-1.123c0.022,0.593,0.451,1.154,0.963,1.154c-0.546,0-0.973,0.465-0.973,1.054
			h-0.001c-0.015-0.591-0.457-1.066-1.008-1.084V18.767z"/>
	</g>
	<g>
	</g>
</g>
<g id="XMLID_37_">
	<g>
		<path d="M47.369,28.445c0.526,0,0.979-0.494,1.016-1.106c0.029,0.589,0.457,1.138,0.964,1.138c-0.546,0-0.97,0.466-0.97,1.054
			h-0.001c-0.015-0.591-0.459-1.066-1.009-1.084V28.445z"/>
	</g>
	<g>
	</g>
</g>
<g id="XMLID_22_">
	<g>
		<path d="M114.641,21.87c4.502,0,8.396-3.99,8.699-8.936c0.257,4.765,3.918,9.19,8.251,9.19c-4.678,0-8.314,3.768-8.314,8.511
			h-0.008c-0.121-4.765-3.91-8.607-8.628-8.755V21.87z"/>
	</g>
	<g>
	</g>
</g>
<g id="XMLID_21_">
	<g>
		<path d="M113.777,28.169c2.086,0,3.886-1.751,4.03-3.916c0.118,2.081,1.814,4.028,3.822,4.028c-2.167,0-3.849,1.653-3.849,3.734
			h-0.004c-0.059-2.096-1.814-3.776-4-3.842V28.169z"/>
	</g>
	<g>
	</g>
</g>
<g id="XMLID_20_">
	<g>
		<path d="M116.996,17.209c1.01,0,1.886-0.92,1.954-2.058c0.058,1.099,0.88,2.119,1.853,2.119c-1.05,0-1.867,0.866-1.867,1.965
			h-0.001c-0.029-1.101-0.879-1.989-1.938-2.023V17.209z"/>
	</g>
	<g>
	</g>
</g>
<g id="XMLID_19_">
	<g>
		<path d="M124.86,16.123c1.89,0,3.523-1.781,3.651-3.989c0.104,2.122,1.641,4.103,3.463,4.103c-1.964,0-3.486,1.687-3.486,3.804
			h-0.004c-0.05-2.132-1.641-3.847-3.624-3.913V16.123z"/>
	</g>
	<g>
	</g>
</g>
<g id="XMLID_18_">
	<g>
		<path d="M125.517,26.687c0.924,0,1.726-0.902,1.795-2.023c0.056,1.079,0.812,2.081,1.702,2.081c-0.967,0-1.714,0.861-1.714,1.94
			h-0.002c-0.026-1.086-0.808-1.962-1.781-1.996V26.687z"/>
	</g>
	<g>
	</g>
</g>
<g id="XMLID_17_">
	<g>
		<path d="M114.678,19.563c0.532,0,0.988-0.503,1.019-1.123c0.021,0.594,0.452,1.154,0.964,1.154c-0.547,0-0.971,0.465-0.971,1.054
			h-0.001c-0.015-0.591-0.46-1.067-1.011-1.084V19.563z"/>
	</g>
	<g>
	</g>
</g>
<g id="XMLID_16_">
	<g>
		<path d="M128.758,29.241c0.525,0,0.979-0.494,1.017-1.106c0.028,0.589,0.456,1.139,0.964,1.139c-0.546,0-0.971,0.465-0.971,1.053
			h-0.001c-0.015-0.591-0.459-1.066-1.009-1.084V29.241z"/>
	</g>
	<g>
	</g>
</g>
<path fill="#FFFFFF" stroke="#000000" stroke-miterlimit="10" d="M37.083,226.855c0,2.28-1.848,4.128-4.128,4.128h-3.827
	c-2.28,0-4.128-1.848-4.128-4.128v-3.125c0-2.279,1.848-4.129,4.128-4.129h3.827c2.28,0,4.128,1.85,4.128,4.129V226.855z"/>
<circle fill="#FFFFFF" stroke="#000000" stroke-miterlimit="10" cx="31.167" cy="226.083" r="2.083"/>
<circle stroke="#000000" stroke-miterlimit="10" cx="33.917" cy="222.209" r="0.563"/>
</svg>
