<?xml version="1.0" encoding="utf-8"?>
<!-- Generator: Adobe Illustrator 16.0.0, SVG Export Plug-In . SVG Version: 6.00 Build 0)  -->
<!DOCTYPE svg PUBLIC "-//W3C//DTD SVG 1.1//EN" "http://www.w3.org/Graphics/SVG/1.1/DTD/svg11.dtd">
<svg version="1.1" xmlns="http://www.w3.org/2000/svg" xmlns:xlink="http://www.w3.org/1999/xlink" x="0px" y="0px" width="51.17px"
	 height="49.72px" viewBox="0 0 51.17 49.72" enable-background="new 0 0 51.17 49.72" xml:space="preserve">
<g id="Layer_1">
	<g id="XMLID_1_">
		<g>
			<polygon points="38.32,20.46 37.48,20.55 37.32,21.42 36.701,20.51 35.791,20.31 36.241,19.65 35.84,18.66 36.741,19.17 
				37.411,18.74 37.51,19.72 			"/>
			<polygon points="38.07,16.09 37.581,16.17 37.5,16.69 37.13,16.16 36.59,16.07 36.85,15.66 36.6,15.08 37.13,15.36 37.51,15.09 
				37.59,15.67 			"/>
			<polygon points="35.041,22.76 35.25,23.04 34.96,22.99 34.84,23.22 34.701,22.9 34.41,22.76 34.61,22.62 34.56,22.3 34.82,22.53 
				35.081,22.47 			"/>
			<polygon points="33.65,19.3 29.61,30.98 27.91,30.25 31.9,18.54 			"/>
			<polygon points="33.17,13.16 32.53,13.2 32.37,13.84 31.94,13.14 31.25,12.96 31.62,12.48 31.35,11.73 32.02,12.14 32.54,11.85 
				32.58,12.58 			"/>
			<path d="M32.58,34.2c0.02,0.06,0.04,0.12,0.06,0.17c-1.99,1.38-4.42,2.22-7.05,2.22c-6.68,0-12.1-5.25-12.1-11.73
				c0-6.3,5.12-11.43,11.55-11.71c-3.84,1.74-6.61,5.75-6.61,10.34c0,6.19,4.89,11.21,10.93,11.21
				C30.48,34.7,31.56,34.52,32.58,34.2z"/>
			<polygon points="29.7,15.35 29.35,15.89 29.68,16.68 28.97,16.28 28.45,16.62 28.36,15.84 27.72,15.27 28.37,15.18 28.49,14.48 
				28.99,15.21 			"/>
			<polygon points="29.58,19.81 29.17,20.03 29.24,20.61 28.77,20.15 28.28,20.2 28.4,19.7 28.03,19.15 28.57,19.3 28.84,18.91 
				29.05,19.51 			"/>
		</g>
		<g>
			<path fill="none" stroke="#000000" stroke-width="2" stroke-miterlimit="10" d="M50.17,24.86c0,13.18-11.01,23.86-24.58,23.86
				C12.01,48.72,1,38.04,1,24.86C1,11.69,12.01,1,25.59,1C39.161,1,50.17,11.69,50.17,24.86z"/>
			<path fill="none" stroke="#000000" stroke-miterlimit="10" d="M42.491,24.86c0,9.34-7.561,16.91-16.9,16.91
				c-9.34,0-16.91-7.57-16.91-16.91c0-9.34,7.57-16.91,16.91-16.91C34.93,7.95,42.491,15.52,42.491,24.86z"/>
		</g>
	</g>
	<polygon fill="none" stroke="#000000" stroke-miterlimit="10" points="35.537,15.114 35.943,17.784 33.834,19.472 31.318,18.489 
		30.912,15.818 33.021,14.131 	"/>
	<polygon fill="none" stroke="#000000" stroke-width="0.5" stroke-miterlimit="10" points="34.662,17.239 33.598,18.05 
		32.364,17.534 32.193,16.208 33.256,15.396 34.492,15.912 	"/>
	<line fill="none" stroke="#000000" stroke-width="0.5" stroke-miterlimit="10" x1="32.975" y1="14.239" x2="33.241" y2="15.442"/>
	<line fill="none" stroke="#000000" stroke-width="0.5" stroke-miterlimit="10" x1="35.49" y1="15.239" x2="34.521" y2="15.864"/>
	<line fill="none" stroke="#000000" stroke-width="0.5" stroke-miterlimit="10" x1="34.662" y1="17.239" x2="35.724" y2="17.754"/>
	<line fill="none" stroke="#000000" stroke-width="0.5" stroke-miterlimit="10" x1="33.615" y1="18.083" x2="33.771" y2="19.333"/>
	<line fill="none" stroke="#000000" stroke-width="0.5" stroke-miterlimit="10" x1="32.364" y1="17.534" x2="31.506" y2="18.364"/>
	<line fill="none" stroke="#000000" stroke-width="0.5" stroke-miterlimit="10" x1="32.193" y1="16.208" x2="31.146" y2="15.942"/>
	<ellipse fill="none" cx="25.657" cy="24.979" rx="18.583" ry="18.541"/>
	<text transform="matrix(0.625 -0.731 0.76 0.6499 10.6953 13.9082)" font-family="'AnotherTypewriter'" font-size="6">s</text>
	<text transform="matrix(0.7691 -0.5775 0.6004 0.7997 13.2061 11.1206)" font-family="'AnotherTypewriter'" font-size="6">a</text>
	<text transform="matrix(0.8767 -0.3955 0.4112 0.9116 16.8706 8.5889)" font-family="'AnotherTypewriter'" font-size="6">i</text>
	<text transform="matrix(0.9402 -0.2027 0.2107 0.9775 20.3179 7.1558)" font-family="'AnotherTypewriter'" font-size="6">l</text>
	<text transform="matrix(0.9616 0.0155 -0.0161 0.9999 24.3091 6.4146)" font-family="'AnotherTypewriter'" font-size="6">o</text>
	<text transform="matrix(0.9372 0.2159 -0.2244 0.9745 28.3613 6.5679)" font-family="'AnotherTypewriter'" font-size="6">r</text>
	<text transform="matrix(0.8642 0.422 -0.4388 0.8986 32.5195 7.6816)" font-family="'AnotherTypewriter'" font-size="6"> </text>
	<text transform="matrix(0.7514 0.6003 -0.6241 0.7813 36.1353 9.5952)" font-family="'AnotherTypewriter'" font-size="6"> </text>
	<text transform="matrix(0.6018 0.7502 -0.78 0.6257 39.27 12.2749)" font-family="'AnotherTypewriter'" font-size="6"> </text>
	<text transform="matrix(0.4234 0.8635 -0.8979 0.4403 41.7231 15.5435)" font-family="'AnotherTypewriter'" font-size="6"> </text>
	<text transform="matrix(0.2299 0.9339 -0.971 0.2391 43.4028 19.3154)" font-family="'AnotherTypewriter'" font-size="6">s</text>
	<text transform="matrix(0.029 0.9613 -0.9995 0.0301 44.188 22.9922)" font-family="'AnotherTypewriter'" font-size="6">t</text>
	<text transform="matrix(-0.1888 0.943 -0.9805 -0.1963 44.1958 27.0522)" font-family="'AnotherTypewriter'" font-size="6">a</text>
	<text transform="matrix(-0.405 0.8723 -0.907 -0.4211 43.1724 31.373)" font-family="'AnotherTypewriter'" font-size="6">r</text>
	<text transform="matrix(-0.5906 0.7591 -0.7893 -0.614 41.2329 35.1997)" font-family="'AnotherTypewriter'" font-size="6"> </text>
	<text transform="matrix(-0.7416 0.6124 -0.6368 -0.771 38.6118 38.3501)" font-family="'AnotherTypewriter'" font-size="6"> </text>
	<text transform="matrix(-0.8577 0.435 -0.4523 -0.8918 35.354 40.8647)" font-family="'AnotherTypewriter'" font-size="6"> </text>
	<text transform="matrix(-0.9323 0.2362 -0.2456 -0.9694 31.644 42.5957)" font-family="'AnotherTypewriter'" font-size="6"> </text>
	<text transform="matrix(-0.9611 0.0349 -0.0363 -0.9993 27.6055 43.4619)" font-family="'AnotherTypewriter'" font-size="6">s</text>
	<text transform="matrix(-0.9476 -0.1643 0.1708 -0.9853 23.8521 43.4878)" font-family="'AnotherTypewriter'" font-size="6">t</text>
	<text transform="matrix(-0.8838 -0.3794 0.3945 -0.9189 19.8838 42.6899)" font-family="'AnotherTypewriter'" font-size="6">u</text>
	<text transform="matrix(-0.7682 -0.5786 0.6016 -0.7988 15.6953 40.708)" font-family="'AnotherTypewriter'" font-size="6">f</text>
	<text transform="matrix(-0.6174 -0.7374 0.7667 -0.642 12.3721 38.0327)" font-family="'AnotherTypewriter'" font-size="6">f</text>
	<text transform="matrix(-0.4444 -0.8529 0.8868 -0.4621 9.7407 34.6377)" font-family="'AnotherTypewriter'" font-size="6">s</text>
</g>
<g id="Layer_2">
	<circle fill="none" cx="25.584" cy="24.86" r="19.192"/>
	<rect x="17.532" y="3.398" fill="none" width="8.288" height="3.402"/>
	<ellipse fill="none" cx="25.645" cy="24.685" rx="18.626" ry="18.452"/>
	<g>
		<g>
			<path d="M33.539,15.105c-0.006,0.071-0.012,0.142-0.018,0.213c0.156-0.042,0.311-0.084,0.467-0.126
				c-0.076-0.139-0.188-0.262-0.225-0.421c-0.063-0.271-0.521-0.216-0.49,0.066c0.045,0.408,0.539,0.976,0.997,0.707
				c0.434-0.254,0.037-0.687-0.335-0.635c-0.09,0.012-0.146,0.1-0.176,0.175c-0.096,0.245,0.162,0.44,0.349,0.54
				c0.303,0.161,0.5-0.039,0.75-0.162c0.291-0.142,0.037-0.573-0.252-0.432c-0.092,0.045-0.346,0.14-0.363,0.186
				c-0.059,0.058-0.117,0.116-0.176,0.174c0.197-0.027-0.294-0.547-0.294-0.554c-0.164,0.022-0.328,0.044-0.492,0.066
				c0.049,0.21,0.171,0.354,0.275,0.54c0.129,0.233,0.447,0.108,0.467-0.126c0.006-0.071,0.012-0.142,0.018-0.213
				C34.066,14.783,33.566,14.786,33.539,15.105L33.539,15.105z"/>
		</g>
	</g>
	<g>
		<g>
			<path d="M32.581,17.666c-0.351-0.024-0.532,0.285-0.661,0.569c-0.063,0.138-0.021,0.33,0.149,0.367
				c0.152,0.033,0.281,0.042,0.435,0.018c0.052-0.018,0.1-0.044,0.143-0.08c0.189-0.125-0.076-0.09-0.016-0.198
				c-0.073,0.13-0.015,0.338,0.149,0.367c0.207,0.037,0.325-0.003,0.454-0.169c0.214-0.282-0.191-0.1-0.216-0.183
				c0.037,0.123,0.041,0.251,0.085,0.373c0.111,0.3,0.593,0.17,0.482-0.133c-0.096-0.258-0.047-0.607-0.376-0.687
				c-0.1-0.024-0.208,0.014-0.281,0.086c-0.04,0.04-0.074,0.104-0.09,0.158c-0.057,0.19-0.049,0.051,0.075,0.073
				c0.05,0.123,0.099,0.245,0.15,0.367c0.146-0.265,0.123-0.476-0.148-0.637c-0.309-0.184-0.46,0.219-0.713,0.163
				c0.05,0.123,0.1,0.245,0.149,0.367c0.036-0.078,0.113-0.329,0.229-0.321C32.902,18.188,32.9,17.688,32.581,17.666L32.581,17.666z
				"/>
		</g>
	</g>
</g>
</svg>
